# xmcd
#
# Track frame offsets: 
#        150
#        32820
#        60684
#        91282
#        119591
#        151055
#        174582
#        205191
#        230737
#        257546
#
# Disc length: 3774 seconds
#
# Revision: 0
# Processed by: cddbd v1.5.2PL0 Copyright (c) Steve Scherf et al.
# Submitted via: ExactAudioCopy v1.0b3
#
DISCID=820ebc0a
DTITLE=Various Artist - This Is Electro House Vol. 2 - CD 3
DYEAR=1900
DGENRE=
TTITLE0=Tosch Feat. Christina - Somewhere Over The Rainbow 2k11 (Le Sh
TTITLE0=uuk And E-Mine Remix)
TTITLE1=Belmond and Parker - Going Back To My Roots (Electro Gold Mix)
TTITLE2=Damon Paul - Bailando 2k11 (Le Shuuk Remix)
TTITLE3=Speedmaster Project - What Is Love (Electro Gold Mix)
TTITLE4=Alisha - Hasta La Vista (Rinaldo Montezz Club Mix)
TTITLE5=Global Disco Rockerz Feat. Lori Glori - Party Must Go On (Dirt
TTITLE5=y Duke Remix)
TTITLE6=Dazzle Dancers - Love Boat (Lost Daze Technicolor Booze Cruise
TTITLE6=Mix)
TTITLE7=Chynna Blue - I'm Every Woman (Brian Arc And Eduo O Remix)
TTITLE8=Mondo - Boom Shakata (Finion Remix)
TTITLE9=X-Solution - Magic Melody (Club Mix)
EXTD=
EXTT0=
EXTT1=
EXTT2=
EXTT3=
EXTT4=
EXTT5=
EXTT6=
EXTT7=
EXTT8=
EXTT9=
PLAYORDER=
